# xmcd
#
# Track frame offsets:
#	150
#	23260
#	41018
#	63351
#	79557
#	97135
#	117685
#	132328
#	151328
#	172193
#	191820
#	208027
#
# Disc length: 3040 seconds
#
# Revision: 0
# Processed by: cddbd v1.5.2PL0 Copyright (c) Steve Scherf et al.
# Submitted via: audiograbber 1.83.01
#
DISCID=a60bde0c
DTITLE=Various Artist - #1 Hits of the 80s
DYEAR=2003
DGENRE=Oldies
TTITLE0=Steve Miller Band - Abracadabra
TTITLE1=Huey Lewis and The News - The Power of Love
TTITLE2=Blondie - Rapture
TTITLE3=The J. Geils Band - Centerfold
TTITLE4=Irene Cara - Flashdance... What a Feeling
TTITLE5=Hall and Oates - Maneater
TTITLE6=Rick Springfield - Jessie's Girl
TTITLE7=Dexys Midnight Runners - Come On Eileen
TTITLE8=Cutting Crew - (I Just) Died in Your Arms
TTITLE9=Starship - Sara
TTITLE10=Duran Duran - A View to a Kill
TTITLE11=John Waite - Missing You
EXTD=
EXTT0=
EXTT1=
EXTT2=
EXTT3=
EXTT4=
EXTT5=
EXTT6=
EXTT7=
EXTT8=
EXTT9=
EXTT10=
EXTT11=
PLAYORDER=
